<?xml version="1.0" encoding="iso-8859-1"?>
<!-- Generator: Adobe Illustrator 19.0.0, SVG Export Plug-In . SVG Version: 6.00 Build 0)  -->
<svg version="1.1" id="Layer_1" xmlns="http://www.w3.org/2000/svg" xmlns:xlink="http://www.w3.org/1999/xlink" x="0px" y="0px"
	 viewBox="0 0 512 512" style="enable-background:new 0 0 512 512;" xml:space="preserve">
<path style="fill:#FFF0B4;" d="M255.973,45.511c-78.421,0-142.222,63.801-142.222,142.222s63.801,142.222,142.222,142.222
	s142.222-63.801,142.222-142.222S334.394,45.511,255.973,45.511z"/>
<path style="fill:#FFE98F;" d="M255.973,329.956c78.421,0,142.222-63.801,142.222-142.222S334.394,45.511,255.973,45.511"/>
<path style="fill:#FFF8DA;" d="M58.084,324.267C68.851,429.667,153.51,512,256.027,512s187.176-82.333,197.944-187.733
	L347.05,278.756l-91.022,45.511l-102.4-45.511L58.084,324.267z"/>
<path style="fill:#FFD6A0;" d="M256.027,512c102.517,0,187.176-82.333,197.944-187.733L347.05,278.756l-91.022,45.511"/>
<path style="fill:#F285B9;" d="M421.556,123.49C384.631,46.164,322.731,0,255.973,0S127.313,46.164,90.388,123.49l-3.512,7.355
	l100.829-34.133l68.267,34.133l68.267-34.133l100.829,34.133L421.556,123.49z"/>
<path style="fill:#EE5DA2;" d="M255.973,130.844l68.267-34.133l100.829,34.133l-3.511-7.355C384.631,46.164,322.731,0,255.973,0"/>
<path style="fill:#FFC170;" d="M408.165,396.144c-7.887,5.679-18.689,13.456-38.415,13.456s-30.528-7.778-38.415-13.456
	c-6.289-4.528-9.753-7.024-18.47-7.024c-8.72,0-12.184,2.495-18.475,7.024c-7.889,5.68-18.693,13.456-38.419,13.456
	s-30.53-7.777-38.419-13.456c-6.291-4.528-9.756-7.024-18.475-7.024c-8.717,0-12.181,2.494-18.471,7.024
	c-7.887,5.679-18.689,13.456-38.416,13.456s-30.53-7.778-38.417-13.456c-6.29-4.528-9.754-7.024-18.472-7.024
	c-4.093,0-7.022,0.556-9.636,1.609C107.485,462.312,176.336,512,255.973,512c79.635,0,148.486-49.687,180.305-121.269
	c-2.615-1.054-5.547-1.611-9.642-1.611C417.919,389.12,414.455,391.614,408.165,396.144z"/>
<path style="fill:#FF9811;" d="M255.973,512c79.635,0,148.486-49.687,180.305-121.269c-2.615-1.054-5.547-1.611-9.642-1.611
	c-8.717,0-12.181,2.494-18.47,7.023c-7.888,5.679-18.69,13.456-38.416,13.456s-30.528-7.778-38.415-13.456
	c-6.289-4.528-9.753-7.024-18.47-7.024c-8.72,0-12.184,2.495-18.475,7.024c-7.889,5.68-18.693,13.456-38.419,13.456"/>
<g>
	<circle style="fill:#50412E;" cx="199.088" cy="182.044" r="17.067"/>
	<circle style="fill:#50412E;" cx="312.866" cy="182.044" r="17.067"/>
</g>
<path style="fill:#FFAD41;" d="M227.528,238.933c0-15.709,12.735-28.444,28.444-28.444s28.444,12.735,28.444,28.444l-28.444,18.963
	L227.528,238.933z"/>
<path style="fill:#FF9811;" d="M255.973,210.489c15.709,0,28.444,12.735,28.444,28.444l-28.444,18.963"/>
<path style="fill:#F285B9;" d="M346.995,278.756l-91.022,45.511l-102.4-45.511l-95.544,45.511
	c1.199,11.736,3.319,23.183,6.274,34.265c5.666-2.098,12.502-3.545,21.001-3.545c19.727,0,30.529,7.778,38.416,13.457
	c6.29,4.528,9.755,7.023,18.472,7.023c8.717,0,12.181-2.494,18.471-7.023c7.886-5.679,18.688-13.457,38.415-13.457
	c19.728,0,30.531,7.777,38.419,13.457c6.291,4.528,9.756,7.023,18.475,7.023c8.719,0,12.184-2.495,18.475-7.023
	c7.888-5.679,18.691-13.457,38.419-13.457c19.726,0,30.528,7.778,38.415,13.457c6.289,4.528,9.753,7.023,18.47,7.023
	s12.181-2.494,18.47-7.023c7.887-5.679,18.689-13.457,38.416-13.457c8.503,0,15.34,1.448,21.007,3.548
	c2.955-11.082,5.074-22.53,6.274-34.268L346.995,278.756z"/>
<path style="fill:#EE5DA2;" d="M255.972,375.467c8.72,0,12.184-2.495,18.475-7.023c7.888-5.679,18.691-13.457,38.419-13.457
	c19.726,0,30.528,7.778,38.415,13.457c6.289,4.528,9.753,7.023,18.47,7.023s12.181-2.494,18.47-7.023
	c7.887-5.679,18.689-13.457,38.416-13.457c8.503,0,15.34,1.448,21.007,3.548c2.955-11.082,5.074-22.53,6.274-34.268l-106.922-45.511
	l-91.022,45.511"/>
<g>
</g>
<g>
</g>
<g>
</g>
<g>
</g>
<g>
</g>
<g>
</g>
<g>
</g>
<g>
</g>
<g>
</g>
<g>
</g>
<g>
</g>
<g>
</g>
<g>
</g>
<g>
</g>
<g>
</g>
</svg>
